<mxfile host="Electron" modified="2023-05-27T15:17:24.034Z" agent="Mozilla/5.0 (Macintosh; Intel Mac OS X 10_15_7) AppleWebKit/537.36 (KHTML, like Gecko) draw.io/21.2.1 Chrome/112.0.5615.87 Electron/24.1.2 Safari/537.36" etag="7gc97QUASa-n1tXa9517" version="21.2.1" type="device">
  <diagram name="Page-1" id="H1nZVYqxkzLZFgEqRADx">
    <mxGraphModel dx="6067" dy="7133" grid="1" gridSize="10" guides="1" tooltips="1" connect="1" arrows="1" fold="1" page="1" pageScale="1" pageWidth="850" pageHeight="1100" math="0" shadow="0">
      <root>
        <mxCell id="0" />
        <mxCell id="1" parent="0" />
        <mxCell id="AsBp8XiL8Dx4Y6rQVwFH-4813" value="R, W: 119, H: 81, ORDER: 16, GC: {37, 22, 18, 42, 4, 14, 15, 11, 1, 13, 12, 3, 39, 44, 8, 36} " style="text;html=1;strokeColor=none;fillColor=none;align=center;verticalAlign=middle;whiteSpace=wrap;rounded=0;flipV=1;" parent="1" vertex="1">
          <mxGeometry x="50" width="1190" height="30" as="geometry" />
        </mxCell>
        <mxCell id="AsBp8XiL8Dx4Y6rQVwFH-10509" value="R, W: 119, H: 87, ORDER: 19, GC: {40, 23, 29, 17, 6, 27, 2, 25, 21, 16, 5, 4, 7, 1, 3, 47, 10, 37, 35} " style="text;html=1;strokeColor=none;fillColor=none;align=center;verticalAlign=middle;whiteSpace=wrap;rounded=0;flipV=1;" parent="1" vertex="1">
          <mxGeometry x="35" y="970" width="1190" height="30" as="geometry" />
        </mxCell>
        <mxCell id="AsBp8XiL8Dx4Y6rQVwFH-16031" value="R, W: 119, H: 97, ORDER: 20, GC: {46, 29, 44, 17, 12, 5, 7, 4, 9, 10, 21, 51, 15, 2, 13, 8, 1, 11, 36, 32} " style="text;html=1;strokeColor=none;fillColor=none;align=center;verticalAlign=middle;whiteSpace=wrap;rounded=0;flipV=1;" parent="1" vertex="1">
          <mxGeometry x="65" y="2010" width="1190" height="30" as="geometry" />
        </mxCell>
        <mxCell id="AsBp8XiL8Dx4Y6rQVwFH-16115" value="R, W: 119, H: 111, ORDER: 20, GC: {47, 31, 41, 16, 15, 19, 1, 14, 22, 64, 23, 7, 3, 4, 21, 11, 5, 6, 28, 27} " style="text;html=1;strokeColor=none;fillColor=none;align=center;verticalAlign=middle;whiteSpace=wrap;rounded=0;flipV=1;" parent="1" vertex="1">
          <mxGeometry x="45" y="3090" width="1190" height="30" as="geometry" />
        </mxCell>
        <mxCell id="xB1eNP7Jcy-d360Akm-L-19" value="" style="group;flipV=1;" vertex="1" connectable="0" parent="1">
          <mxGeometry x="50" y="50" width="1190" height="810" as="geometry" />
        </mxCell>
        <mxCell id="761dnnyQ54j-Cl0NHfQN-4814" value="37" style="rounded=0;whiteSpace=wrap;html=1;" parent="xB1eNP7Jcy-d360Akm-L-19" vertex="1">
          <mxGeometry y="440" width="370" height="370" as="geometry" />
        </mxCell>
        <mxCell id="761dnnyQ54j-Cl0NHfQN-4815" value="22" style="rounded=0;whiteSpace=wrap;html=1;" parent="xB1eNP7Jcy-d360Akm-L-19" vertex="1">
          <mxGeometry x="370" y="590" width="220" height="220" as="geometry" />
        </mxCell>
        <mxCell id="761dnnyQ54j-Cl0NHfQN-4816" value="18" style="rounded=0;whiteSpace=wrap;html=1;" parent="xB1eNP7Jcy-d360Akm-L-19" vertex="1">
          <mxGeometry x="590" y="630" width="180" height="180" as="geometry" />
        </mxCell>
        <mxCell id="761dnnyQ54j-Cl0NHfQN-4817" value="42" style="rounded=0;whiteSpace=wrap;html=1;" parent="xB1eNP7Jcy-d360Akm-L-19" vertex="1">
          <mxGeometry x="770" y="390" width="420" height="420" as="geometry" />
        </mxCell>
        <mxCell id="761dnnyQ54j-Cl0NHfQN-4818" value="4" style="rounded=0;whiteSpace=wrap;html=1;" parent="xB1eNP7Jcy-d360Akm-L-19" vertex="1">
          <mxGeometry x="590" y="590" width="40" height="40" as="geometry" />
        </mxCell>
        <mxCell id="761dnnyQ54j-Cl0NHfQN-4819" value="14" style="rounded=0;whiteSpace=wrap;html=1;" parent="xB1eNP7Jcy-d360Akm-L-19" vertex="1">
          <mxGeometry x="630" y="490" width="140" height="140" as="geometry" />
        </mxCell>
        <mxCell id="761dnnyQ54j-Cl0NHfQN-4820" value="15" style="rounded=0;whiteSpace=wrap;html=1;" parent="xB1eNP7Jcy-d360Akm-L-19" vertex="1">
          <mxGeometry x="370" y="440" width="150" height="150" as="geometry" />
        </mxCell>
        <mxCell id="761dnnyQ54j-Cl0NHfQN-4821" value="11" style="rounded=0;whiteSpace=wrap;html=1;" parent="xB1eNP7Jcy-d360Akm-L-19" vertex="1">
          <mxGeometry x="520" y="480" width="110" height="110" as="geometry" />
        </mxCell>
        <mxCell id="761dnnyQ54j-Cl0NHfQN-4822" value="1" style="rounded=0;whiteSpace=wrap;html=1;" parent="xB1eNP7Jcy-d360Akm-L-19" vertex="1">
          <mxGeometry x="630" y="480" width="10" height="10" as="geometry" />
        </mxCell>
        <mxCell id="761dnnyQ54j-Cl0NHfQN-4823" value="13" style="rounded=0;whiteSpace=wrap;html=1;" parent="xB1eNP7Jcy-d360Akm-L-19" vertex="1">
          <mxGeometry x="640" y="360" width="130" height="130" as="geometry" />
        </mxCell>
        <mxCell id="761dnnyQ54j-Cl0NHfQN-4824" value="12" style="rounded=0;whiteSpace=wrap;html=1;" parent="xB1eNP7Jcy-d360Akm-L-19" vertex="1">
          <mxGeometry x="520" y="360" width="120" height="120" as="geometry" />
        </mxCell>
        <mxCell id="761dnnyQ54j-Cl0NHfQN-4825" value="3" style="rounded=0;whiteSpace=wrap;html=1;" parent="xB1eNP7Jcy-d360Akm-L-19" vertex="1">
          <mxGeometry x="770" y="360" width="30" height="30" as="geometry" />
        </mxCell>
        <mxCell id="761dnnyQ54j-Cl0NHfQN-4826" value="39" style="rounded=0;whiteSpace=wrap;html=1;" parent="xB1eNP7Jcy-d360Akm-L-19" vertex="1">
          <mxGeometry x="800" width="390" height="390" as="geometry" />
        </mxCell>
        <mxCell id="761dnnyQ54j-Cl0NHfQN-4827" value="44" style="rounded=0;whiteSpace=wrap;html=1;" parent="xB1eNP7Jcy-d360Akm-L-19" vertex="1">
          <mxGeometry width="440" height="440" as="geometry" />
        </mxCell>
        <mxCell id="761dnnyQ54j-Cl0NHfQN-4828" value="8" style="rounded=0;whiteSpace=wrap;html=1;" parent="xB1eNP7Jcy-d360Akm-L-19" vertex="1">
          <mxGeometry x="440" y="360" width="80" height="80" as="geometry" />
        </mxCell>
        <mxCell id="761dnnyQ54j-Cl0NHfQN-4829" value="36" style="rounded=0;whiteSpace=wrap;html=1;" parent="xB1eNP7Jcy-d360Akm-L-19" vertex="1">
          <mxGeometry x="440" width="360" height="360" as="geometry" />
        </mxCell>
        <mxCell id="xB1eNP7Jcy-d360Akm-L-20" value="" style="group;flipV=1;" vertex="1" connectable="0" parent="1">
          <mxGeometry x="35" y="1020" width="1190" height="870" as="geometry" />
        </mxCell>
        <mxCell id="761dnnyQ54j-Cl0NHfQN-10510" value="40" style="rounded=0;whiteSpace=wrap;html=1;" parent="xB1eNP7Jcy-d360Akm-L-20" vertex="1">
          <mxGeometry y="470" width="400" height="400" as="geometry" />
        </mxCell>
        <mxCell id="761dnnyQ54j-Cl0NHfQN-10511" value="23" style="rounded=0;whiteSpace=wrap;html=1;" parent="xB1eNP7Jcy-d360Akm-L-20" vertex="1">
          <mxGeometry x="400" y="640" width="230" height="230" as="geometry" />
        </mxCell>
        <mxCell id="761dnnyQ54j-Cl0NHfQN-10512" value="29" style="rounded=0;whiteSpace=wrap;html=1;" parent="xB1eNP7Jcy-d360Akm-L-20" vertex="1">
          <mxGeometry x="630" y="580" width="290" height="290" as="geometry" />
        </mxCell>
        <mxCell id="761dnnyQ54j-Cl0NHfQN-10513" value="17" style="rounded=0;whiteSpace=wrap;html=1;" parent="xB1eNP7Jcy-d360Akm-L-20" vertex="1">
          <mxGeometry x="400" y="470" width="170" height="170" as="geometry" />
        </mxCell>
        <mxCell id="761dnnyQ54j-Cl0NHfQN-10514" value="6" style="rounded=0;whiteSpace=wrap;html=1;" parent="xB1eNP7Jcy-d360Akm-L-20" vertex="1">
          <mxGeometry x="570" y="580" width="60" height="60" as="geometry" />
        </mxCell>
        <mxCell id="761dnnyQ54j-Cl0NHfQN-10515" value="27" style="rounded=0;whiteSpace=wrap;html=1;" parent="xB1eNP7Jcy-d360Akm-L-20" vertex="1">
          <mxGeometry x="920" y="600" width="270" height="270" as="geometry" />
        </mxCell>
        <mxCell id="761dnnyQ54j-Cl0NHfQN-10516" value="2" style="rounded=0;whiteSpace=wrap;html=1;" parent="xB1eNP7Jcy-d360Akm-L-20" vertex="1">
          <mxGeometry x="920" y="580" width="20" height="20" as="geometry" />
        </mxCell>
        <mxCell id="761dnnyQ54j-Cl0NHfQN-10517" value="25" style="rounded=0;whiteSpace=wrap;html=1;" parent="xB1eNP7Jcy-d360Akm-L-20" vertex="1">
          <mxGeometry x="940" y="350" width="250" height="250" as="geometry" />
        </mxCell>
        <mxCell id="761dnnyQ54j-Cl0NHfQN-10518" value="21" style="rounded=0;whiteSpace=wrap;html=1;" parent="xB1eNP7Jcy-d360Akm-L-20" vertex="1">
          <mxGeometry x="570" y="370" width="210" height="210" as="geometry" />
        </mxCell>
        <mxCell id="761dnnyQ54j-Cl0NHfQN-10519" value="16" style="rounded=0;whiteSpace=wrap;html=1;" parent="xB1eNP7Jcy-d360Akm-L-20" vertex="1">
          <mxGeometry x="780" y="420" width="160" height="160" as="geometry" />
        </mxCell>
        <mxCell id="761dnnyQ54j-Cl0NHfQN-10520" value="5" style="rounded=0;whiteSpace=wrap;html=1;" parent="xB1eNP7Jcy-d360Akm-L-20" vertex="1">
          <mxGeometry x="780" y="370" width="50" height="50" as="geometry" />
        </mxCell>
        <mxCell id="761dnnyQ54j-Cl0NHfQN-10521" value="4" style="rounded=0;whiteSpace=wrap;html=1;" parent="xB1eNP7Jcy-d360Akm-L-20" vertex="1">
          <mxGeometry x="830" y="380" width="40" height="40" as="geometry" />
        </mxCell>
        <mxCell id="761dnnyQ54j-Cl0NHfQN-10522" value="7" style="rounded=0;whiteSpace=wrap;html=1;" parent="xB1eNP7Jcy-d360Akm-L-20" vertex="1">
          <mxGeometry x="870" y="350" width="70" height="70" as="geometry" />
        </mxCell>
        <mxCell id="761dnnyQ54j-Cl0NHfQN-10523" value="1" style="rounded=0;whiteSpace=wrap;html=1;" parent="xB1eNP7Jcy-d360Akm-L-20" vertex="1">
          <mxGeometry x="830" y="370" width="10" height="10" as="geometry" />
        </mxCell>
        <mxCell id="761dnnyQ54j-Cl0NHfQN-10524" value="3" style="rounded=0;whiteSpace=wrap;html=1;" parent="xB1eNP7Jcy-d360Akm-L-20" vertex="1">
          <mxGeometry x="840" y="350" width="30" height="30" as="geometry" />
        </mxCell>
        <mxCell id="761dnnyQ54j-Cl0NHfQN-10525" value="47" style="rounded=0;whiteSpace=wrap;html=1;" parent="xB1eNP7Jcy-d360Akm-L-20" vertex="1">
          <mxGeometry width="470" height="470" as="geometry" />
        </mxCell>
        <mxCell id="761dnnyQ54j-Cl0NHfQN-10526" value="10" style="rounded=0;whiteSpace=wrap;html=1;" parent="xB1eNP7Jcy-d360Akm-L-20" vertex="1">
          <mxGeometry x="470" y="370" width="100" height="100" as="geometry" />
        </mxCell>
        <mxCell id="761dnnyQ54j-Cl0NHfQN-10527" value="37" style="rounded=0;whiteSpace=wrap;html=1;" parent="xB1eNP7Jcy-d360Akm-L-20" vertex="1">
          <mxGeometry x="470" width="370" height="370" as="geometry" />
        </mxCell>
        <mxCell id="761dnnyQ54j-Cl0NHfQN-10528" value="35" style="rounded=0;whiteSpace=wrap;html=1;" parent="xB1eNP7Jcy-d360Akm-L-20" vertex="1">
          <mxGeometry x="840" width="350" height="350" as="geometry" />
        </mxCell>
        <mxCell id="xB1eNP7Jcy-d360Akm-L-21" value="" style="group;flipV=1;" vertex="1" connectable="0" parent="1">
          <mxGeometry x="65" y="2060" width="1190" height="970" as="geometry" />
        </mxCell>
        <mxCell id="761dnnyQ54j-Cl0NHfQN-16032" value="46" style="rounded=0;whiteSpace=wrap;html=1;" parent="xB1eNP7Jcy-d360Akm-L-21" vertex="1">
          <mxGeometry y="510" width="460" height="460" as="geometry" />
        </mxCell>
        <mxCell id="761dnnyQ54j-Cl0NHfQN-16033" value="29" style="rounded=0;whiteSpace=wrap;html=1;" parent="xB1eNP7Jcy-d360Akm-L-21" vertex="1">
          <mxGeometry x="460" y="680" width="290" height="290" as="geometry" />
        </mxCell>
        <mxCell id="761dnnyQ54j-Cl0NHfQN-16034" value="44" style="rounded=0;whiteSpace=wrap;html=1;" parent="xB1eNP7Jcy-d360Akm-L-21" vertex="1">
          <mxGeometry x="750" y="530" width="440" height="440" as="geometry" />
        </mxCell>
        <mxCell id="761dnnyQ54j-Cl0NHfQN-16035" value="17" style="rounded=0;whiteSpace=wrap;html=1;" parent="xB1eNP7Jcy-d360Akm-L-21" vertex="1">
          <mxGeometry x="460" y="510" width="170" height="170" as="geometry" />
        </mxCell>
        <mxCell id="761dnnyQ54j-Cl0NHfQN-16036" value="12" style="rounded=0;whiteSpace=wrap;html=1;" parent="xB1eNP7Jcy-d360Akm-L-21" vertex="1">
          <mxGeometry x="630" y="560" width="120" height="120" as="geometry" />
        </mxCell>
        <mxCell id="761dnnyQ54j-Cl0NHfQN-16037" value="5" style="rounded=0;whiteSpace=wrap;html=1;" parent="xB1eNP7Jcy-d360Akm-L-21" vertex="1">
          <mxGeometry x="630" y="510" width="50" height="50" as="geometry" />
        </mxCell>
        <mxCell id="761dnnyQ54j-Cl0NHfQN-16038" value="7" style="rounded=0;whiteSpace=wrap;html=1;" parent="xB1eNP7Jcy-d360Akm-L-21" vertex="1">
          <mxGeometry x="680" y="490" width="70" height="70" as="geometry" />
        </mxCell>
        <mxCell id="761dnnyQ54j-Cl0NHfQN-16039" value="4" style="rounded=0;whiteSpace=wrap;html=1;" parent="xB1eNP7Jcy-d360Akm-L-21" vertex="1">
          <mxGeometry x="750" y="490" width="40" height="40" as="geometry" />
        </mxCell>
        <mxCell id="761dnnyQ54j-Cl0NHfQN-16040" value="9" style="rounded=0;whiteSpace=wrap;html=1;" parent="xB1eNP7Jcy-d360Akm-L-21" vertex="1">
          <mxGeometry x="790" y="440" width="90" height="90" as="geometry" />
        </mxCell>
        <mxCell id="761dnnyQ54j-Cl0NHfQN-16041" value="10" style="rounded=0;whiteSpace=wrap;html=1;" parent="xB1eNP7Jcy-d360Akm-L-21" vertex="1">
          <mxGeometry x="880" y="430" width="100" height="100" as="geometry" />
        </mxCell>
        <mxCell id="761dnnyQ54j-Cl0NHfQN-16042" value="21" style="rounded=0;whiteSpace=wrap;html=1;" parent="xB1eNP7Jcy-d360Akm-L-21" vertex="1">
          <mxGeometry x="980" y="320" width="210" height="210" as="geometry" />
        </mxCell>
        <mxCell id="761dnnyQ54j-Cl0NHfQN-16043" value="51" style="rounded=0;whiteSpace=wrap;html=1;" parent="xB1eNP7Jcy-d360Akm-L-21" vertex="1">
          <mxGeometry width="510" height="510" as="geometry" />
        </mxCell>
        <mxCell id="761dnnyQ54j-Cl0NHfQN-16044" value="15" style="rounded=0;whiteSpace=wrap;html=1;" parent="xB1eNP7Jcy-d360Akm-L-21" vertex="1">
          <mxGeometry x="510" y="360" width="150" height="150" as="geometry" />
        </mxCell>
        <mxCell id="761dnnyQ54j-Cl0NHfQN-16045" value="2" style="rounded=0;whiteSpace=wrap;html=1;" parent="xB1eNP7Jcy-d360Akm-L-21" vertex="1">
          <mxGeometry x="660" y="490" width="20" height="20" as="geometry" />
        </mxCell>
        <mxCell id="761dnnyQ54j-Cl0NHfQN-16046" value="13" style="rounded=0;whiteSpace=wrap;html=1;" parent="xB1eNP7Jcy-d360Akm-L-21" vertex="1">
          <mxGeometry x="660" y="360" width="130" height="130" as="geometry" />
        </mxCell>
        <mxCell id="761dnnyQ54j-Cl0NHfQN-16047" value="8" style="rounded=0;whiteSpace=wrap;html=1;" parent="xB1eNP7Jcy-d360Akm-L-21" vertex="1">
          <mxGeometry x="790" y="360" width="80" height="80" as="geometry" />
        </mxCell>
        <mxCell id="761dnnyQ54j-Cl0NHfQN-16048" value="1" style="rounded=0;whiteSpace=wrap;html=1;" parent="xB1eNP7Jcy-d360Akm-L-21" vertex="1">
          <mxGeometry x="870" y="430" width="10" height="10" as="geometry" />
        </mxCell>
        <mxCell id="761dnnyQ54j-Cl0NHfQN-16049" value="11" style="rounded=0;whiteSpace=wrap;html=1;" parent="xB1eNP7Jcy-d360Akm-L-21" vertex="1">
          <mxGeometry x="870" y="320" width="110" height="110" as="geometry" />
        </mxCell>
        <mxCell id="761dnnyQ54j-Cl0NHfQN-16050" value="36" style="rounded=0;whiteSpace=wrap;html=1;" parent="xB1eNP7Jcy-d360Akm-L-21" vertex="1">
          <mxGeometry x="510" width="360" height="360" as="geometry" />
        </mxCell>
        <mxCell id="761dnnyQ54j-Cl0NHfQN-16051" value="32" style="rounded=0;whiteSpace=wrap;html=1;" parent="xB1eNP7Jcy-d360Akm-L-21" vertex="1">
          <mxGeometry x="870" width="320" height="320" as="geometry" />
        </mxCell>
        <mxCell id="xB1eNP7Jcy-d360Akm-L-22" value="" style="group;flipV=1;" vertex="1" connectable="0" parent="1">
          <mxGeometry x="45" y="3140" width="1190" height="1110" as="geometry" />
        </mxCell>
        <mxCell id="761dnnyQ54j-Cl0NHfQN-16116" value="47" style="rounded=0;whiteSpace=wrap;html=1;" parent="xB1eNP7Jcy-d360Akm-L-22" vertex="1">
          <mxGeometry y="640" width="470" height="470" as="geometry" />
        </mxCell>
        <mxCell id="761dnnyQ54j-Cl0NHfQN-16117" value="31" style="rounded=0;whiteSpace=wrap;html=1;" parent="xB1eNP7Jcy-d360Akm-L-22" vertex="1">
          <mxGeometry x="470" y="800" width="310" height="310" as="geometry" />
        </mxCell>
        <mxCell id="761dnnyQ54j-Cl0NHfQN-16118" value="41" style="rounded=0;whiteSpace=wrap;html=1;" parent="xB1eNP7Jcy-d360Akm-L-22" vertex="1">
          <mxGeometry x="780" y="700" width="410" height="410" as="geometry" />
        </mxCell>
        <mxCell id="761dnnyQ54j-Cl0NHfQN-16119" value="16" style="rounded=0;whiteSpace=wrap;html=1;" parent="xB1eNP7Jcy-d360Akm-L-22" vertex="1">
          <mxGeometry x="470" y="640" width="160" height="160" as="geometry" />
        </mxCell>
        <mxCell id="761dnnyQ54j-Cl0NHfQN-16120" value="15" style="rounded=0;whiteSpace=wrap;html=1;" parent="xB1eNP7Jcy-d360Akm-L-22" vertex="1">
          <mxGeometry x="630" y="650" width="150" height="150" as="geometry" />
        </mxCell>
        <mxCell id="761dnnyQ54j-Cl0NHfQN-16121" value="19" style="rounded=0;whiteSpace=wrap;html=1;" parent="xB1eNP7Jcy-d360Akm-L-22" vertex="1">
          <mxGeometry x="780" y="510" width="190" height="190" as="geometry" />
        </mxCell>
        <mxCell id="761dnnyQ54j-Cl0NHfQN-16122" value="1" style="rounded=0;whiteSpace=wrap;html=1;" parent="xB1eNP7Jcy-d360Akm-L-22" vertex="1">
          <mxGeometry x="630" y="640" width="10" height="10" as="geometry" />
        </mxCell>
        <mxCell id="761dnnyQ54j-Cl0NHfQN-16123" value="14" style="rounded=0;whiteSpace=wrap;html=1;" parent="xB1eNP7Jcy-d360Akm-L-22" vertex="1">
          <mxGeometry x="640" y="510" width="140" height="140" as="geometry" />
        </mxCell>
        <mxCell id="761dnnyQ54j-Cl0NHfQN-16124" value="22" style="rounded=0;whiteSpace=wrap;html=1;" parent="xB1eNP7Jcy-d360Akm-L-22" vertex="1">
          <mxGeometry x="970" y="480" width="220" height="220" as="geometry" />
        </mxCell>
        <mxCell id="761dnnyQ54j-Cl0NHfQN-16125" value="64" style="rounded=0;whiteSpace=wrap;html=1;" parent="xB1eNP7Jcy-d360Akm-L-22" vertex="1">
          <mxGeometry width="640" height="640" as="geometry" />
        </mxCell>
        <mxCell id="761dnnyQ54j-Cl0NHfQN-16126" value="23" style="rounded=0;whiteSpace=wrap;html=1;" parent="xB1eNP7Jcy-d360Akm-L-22" vertex="1">
          <mxGeometry x="640" y="280" width="230" height="230" as="geometry" />
        </mxCell>
        <mxCell id="761dnnyQ54j-Cl0NHfQN-16127" value="7" style="rounded=0;whiteSpace=wrap;html=1;" parent="xB1eNP7Jcy-d360Akm-L-22" vertex="1">
          <mxGeometry x="870" y="440" width="70" height="70" as="geometry" />
        </mxCell>
        <mxCell id="761dnnyQ54j-Cl0NHfQN-16128" value="3" style="rounded=0;whiteSpace=wrap;html=1;" parent="xB1eNP7Jcy-d360Akm-L-22" vertex="1">
          <mxGeometry x="940" y="480" width="30" height="30" as="geometry" />
        </mxCell>
        <mxCell id="761dnnyQ54j-Cl0NHfQN-16129" value="4" style="rounded=0;whiteSpace=wrap;html=1;" parent="xB1eNP7Jcy-d360Akm-L-22" vertex="1">
          <mxGeometry x="940" y="440" width="40" height="40" as="geometry" />
        </mxCell>
        <mxCell id="761dnnyQ54j-Cl0NHfQN-16130" value="21" style="rounded=0;whiteSpace=wrap;html=1;" parent="xB1eNP7Jcy-d360Akm-L-22" vertex="1">
          <mxGeometry x="980" y="270" width="210" height="210" as="geometry" />
        </mxCell>
        <mxCell id="761dnnyQ54j-Cl0NHfQN-16131" value="11" style="rounded=0;whiteSpace=wrap;html=1;" parent="xB1eNP7Jcy-d360Akm-L-22" vertex="1">
          <mxGeometry x="870" y="330" width="110" height="110" as="geometry" />
        </mxCell>
        <mxCell id="761dnnyQ54j-Cl0NHfQN-16132" value="5" style="rounded=0;whiteSpace=wrap;html=1;" parent="xB1eNP7Jcy-d360Akm-L-22" vertex="1">
          <mxGeometry x="870" y="280" width="50" height="50" as="geometry" />
        </mxCell>
        <mxCell id="761dnnyQ54j-Cl0NHfQN-16133" value="6" style="rounded=0;whiteSpace=wrap;html=1;" parent="xB1eNP7Jcy-d360Akm-L-22" vertex="1">
          <mxGeometry x="920" y="270" width="60" height="60" as="geometry" />
        </mxCell>
        <mxCell id="761dnnyQ54j-Cl0NHfQN-16134" value="28" style="rounded=0;whiteSpace=wrap;html=1;" parent="xB1eNP7Jcy-d360Akm-L-22" vertex="1">
          <mxGeometry x="640" width="280" height="280" as="geometry" />
        </mxCell>
        <mxCell id="761dnnyQ54j-Cl0NHfQN-16135" value="27" style="rounded=0;whiteSpace=wrap;html=1;" parent="xB1eNP7Jcy-d360Akm-L-22" vertex="1">
          <mxGeometry x="920" width="270" height="270" as="geometry" />
        </mxCell>
      </root>
    </mxGraphModel>
  </diagram>
</mxfile>
